<?xml version="1.0" encoding="iso-8859-1"?>
<!-- Generator: Adobe Illustrator 19.0.0, SVG Export Plug-In . SVG Version: 6.00 Build 0)  -->
<svg version="1.1" id="Capa_1" xmlns="http://www.w3.org/2000/svg" xmlns:xlink="http://www.w3.org/1999/xlink" x="0px" y="0px"
	 viewBox="0 0 512 512" style="enable-background:new 0 0 512 512;" xml:space="preserve">
<g>
	<g>
		<path d="M143.428,0.985H63.737c-5.501,0-9.961,4.461-9.961,9.961v79.691c0,5.501,4.46,9.961,9.961,9.961h79.691
			c5.501,0,9.961-4.461,9.961-9.961V10.947C153.39,5.446,148.929,0.985,143.428,0.985z M133.467,80.676H73.698V20.908h59.768V80.676
			z"/>
	</g>
</g>
<g>
	<g>
		<path d="M262.965,0.985h-79.691c-5.501,0-9.961,4.461-9.961,9.961v79.691c0,5.501,4.46,9.961,9.961,9.961h79.691
			c5.501,0,9.961-4.461,9.961-9.961V10.947C272.926,5.446,268.466,0.985,262.965,0.985z M253.004,80.676h-59.768V20.908h59.768
			V80.676z"/>
	</g>
</g>
<g>
	<g>
		<path d="M382.502,0.985h-79.691c-5.501,0-9.961,4.461-9.961,9.961v79.691c0,5.501,4.461,9.961,9.961,9.961h79.691
			c5.501,0,9.961-4.461,9.961-9.961V10.947C392.463,5.446,388.003,0.985,382.502,0.985z M372.54,80.676h-59.768V20.908h59.768
			V80.676z"/>
	</g>
</g>
<g>
	<g>
		<path style="fill:#ea2845" d="M392.463,210.174v-79.691c0-5.5-4.461-9.96-9.961-9.96h-79.691c-5.501,0-9.961,4.461-9.961,9.961v19.726
			c-44.121-21.456-96.806-19.624-139.46,5.508v-25.234c0-5.501-4.461-9.961-9.961-9.961H63.737c-5.501,0-9.961,4.461-9.961,9.961
			v79.691c0,5.501,4.461,9.961,9.961,9.961h31.042C69.226,274.759,78.966,341.94,124.01,386.986
			c3.326,3.326,6.778,6.451,10.331,9.392l-90.627,90.627c-2.635,2.635-6.136,4.086-9.861,4.086c-3.725,0-7.227-1.451-9.861-4.086
			c-5.438-5.437-5.437-14.285,0-19.723l40.033-40.033c3.89-3.89,3.89-10.198,0-14.088c-3.891-3.889-10.197-3.889-14.088,0
			L9.904,453.197c-13.205,13.206-13.205,34.693,0,47.897c6.397,6.397,14.902,9.921,23.949,9.921c9.047,0,17.552-3.523,23.949-9.921
			l92.938-92.938c7.249,4.481,14.804,8.275,22.573,11.383v29.709c0,5.501,4.461,9.961,9.961,9.961h79.691
			c5.501,0,9.961-4.461,9.961-9.961v-26.036c6.787-2.146,13.447-4.793,19.923-7.942v33.978c0,5.501,4.461,9.961,9.961,9.961h79.691
			c5.501,0,9.961-4.461,9.961-9.961v-79.691c0-5.501-4.461-9.961-9.961-9.961h-28.447c6.825-11.154,12.175-23.182,15.812-35.752
			c1.529-5.285-1.515-10.809-6.8-12.337c-5.278-1.535-10.809,1.515-12.337,6.8c-5.936,20.513-17.109,39.39-32.312,54.593
			c-49.713,49.715-130.607,49.715-180.321,0c-49.714-49.714-49.714-130.606,0-180.32c49.713-49.715,130.607-49.715,180.321,0
			c16.535,16.535,28.188,37.213,33.699,59.801c1.305,5.344,6.695,8.623,12.038,7.317c5.345-1.304,8.621-6.694,7.317-12.038
			c-2.321-9.511-5.593-18.723-9.723-27.523h20.753C388.003,220.135,392.463,215.674,392.463,210.174z M312.771,403.553
			c6.936-4.857,13.546-10.376,19.735-16.566c2.409-2.41,4.722-4.906,6.952-7.469h33.081v59.768h-59.768V403.553z M193.235,425.911
			c11.492,2.791,23.258,4.188,35.023,4.188c8.28,0,16.56-0.691,24.745-2.074v11.262h-59.768V425.911z M133.467,169.831
			c-3.244,2.728-6.404,5.608-9.456,8.66c-6.777,6.778-12.745,14.061-17.924,21.722H73.698v-59.768h59.768V169.831z M350.415,200.213
			c-5.244-7.751-11.223-15.036-17.909-21.722c-6.19-6.19-12.799-11.709-19.736-16.566v-21.482h59.768v59.769H350.415z"/>
	</g>
</g>
<g>
	<g>
		<path d="M502.039,120.522h-79.691c-5.501,0-9.961,4.461-9.961,9.961v79.691c0,5.501,4.461,9.961,9.961,9.961h79.691
			c5.501,0,9.961-4.461,9.961-9.961v-79.691C512,124.983,507.539,120.522,502.039,120.522z M492.077,200.213h-59.768v-59.768h59.768
			V200.213z"/>
	</g>
</g>
<g>
	<g>
		<path d="M502.039,240.059h-79.691c-5.501,0-9.961,4.461-9.961,9.961v79.691c0,5.501,4.461,9.961,9.961,9.961h79.691
			c5.501,0,9.961-4.461,9.961-9.961V250.02C512,244.519,507.539,240.059,502.039,240.059z M492.077,319.75h-59.768v-59.768h59.768
			V319.75z"/>
	</g>
</g>
<g>
	<g>
		<path d="M502.039,359.596h-79.691c-5.501,0-9.961,4.461-9.961,9.961v79.691c0,5.501,4.461,9.961,9.961,9.961h79.691
			c5.501,0,9.961-4.461,9.961-9.961v-79.691C512,364.056,507.539,359.596,502.039,359.596z M492.077,439.287h-59.768v-59.768h59.768
			V439.287z"/>
	</g>
</g>
<g>
	<g>
		<path d="M92.226,384.958c-1.852-1.853-4.422-2.919-7.042-2.919c-2.621,0-5.191,1.065-7.043,2.919
			c-1.853,1.852-2.919,4.422-2.919,7.043c0,2.63,1.065,5.19,2.919,7.042c1.852,1.853,4.422,2.92,7.043,2.92
			c2.62-0.001,5.19-1.067,7.042-2.92c1.853-1.852,2.92-4.422,2.92-7.042C95.145,389.38,94.079,386.81,92.226,384.958z"/>
	</g>
</g>
<g>
	<g>
		<path d="M365.726,272.777c-5.501,0-9.961,4.461-9.961,9.962l-0.003,0.838c-0.035,5.501,4.395,9.989,9.898,10.025
			c0.022,0,0.044,0,0.065,0c5.471,0,9.925-4.418,9.96-9.898l0.003-0.966C375.687,277.238,371.227,272.777,365.726,272.777z"/>
	</g>
</g>
<g>
	<g>
		<path  d="M300.105,210.893c-39.616-39.617-104.077-39.617-143.693,0c-19.192,19.192-29.76,44.707-29.76,71.847
			c0,27.14,10.568,52.655,29.76,71.847c19.192,19.192,44.707,29.76,71.847,29.76s52.655-10.568,71.847-29.76
			c19.192-19.192,29.76-44.707,29.76-71.847S319.297,230.084,300.105,210.893z M153.572,315.866
			c-4.571-10.297-6.997-21.522-6.997-33.127c0-11.604,2.426-22.83,6.997-33.127V315.866z M228.258,364.422
			c-11.538,0-22.702-2.398-32.951-6.919h65.903C250.961,362.024,239.797,364.422,228.258,364.422z M269.124,337.58h-95.629V241.95
			h95.629V337.58z M279.086,222.028H173.613c15.484-13.955,35.065-20.935,54.645-20.935c20.424,0.001,40.836,7.613,56.611,22.797
			C283.237,222.722,281.245,222.028,279.086,222.028z M289.047,337.293V231.989c0-2.156-0.692-4.146-1.856-5.777
			c14.672,15.281,22.751,35.278,22.751,56.526C309.942,303.082,302.551,322.283,289.047,337.293z"/>
	</g>
</g>
<g>
</g>
<g>
</g>
<g>
</g>
<g>
</g>
<g>
</g>
<g>
</g>
<g>
</g>
<g>
</g>
<g>
</g>
<g>
</g>
<g>
</g>
<g>
</g>
<g>
</g>
<g>
</g>
<g>
</g>
</svg>
