<svg enable-background="new 0 0 512 512" viewBox="0 0 512 512" xmlns="http://www.w3.org/2000/svg"><path d="m448.004 93c5.523 0 10-4.477 10-10v-53c0-16.542-13.458-30-30-30h-398c-16.542 0-30 13.458-30 30v452c0 16.542 13.458 30 30 30h398c16.542 0 30-13.458 30-30v-28c0-5.523-4.477-10-10-10s-10 4.477-10 10v28c0 5.514-4.486 10-10 10h-398c-5.514 0-10-4.486-10-10v-452c0-5.514 4.486-10 10-10h398c5.514 0 10 4.486 10 10v53c0 5.523 4.477 10 10 10z"/><path d="m400.01 48h-342.012c-5.523 0-10 4.477-10 10v209c0 5.523 4.477 10 10 10s10-4.477 10-10v-199h322.012v16c0 5.523 4.478 10 10 10 5.523 0 10-4.477 10-10v-26c0-5.523-4.477-10-10-10z"/><path d="m65.064 296.93c-1.86-1.86-4.43-2.93-7.07-2.93-2.63 0-5.21 1.07-7.07 2.93s-2.93 4.44-2.93 7.07 1.07 5.21 2.93 7.07 4.44 2.93 7.07 2.93c2.64 0 5.21-1.07 7.07-2.93 1.87-1.86 2.93-4.44 2.93-7.07s-1.06-5.21-2.93-7.07z"/><path d="m400.01 422c-5.523 0-10 4.477-10 10v12h-322.012v-101.5c0-5.523-4.477-10-10-10s-10 4.477-10 10v111.5c0 5.523 4.477 10 10 10h342.012c5.523 0 10-4.477 10-10v-22c0-5.523-4.477-10-10-10z"/><path d="m309.908 353.336c-3.905-3.906-10.236-3.906-14.142-.001l-19.764 19.765-12.285-12.286c-7.757-7.756-20.376-7.756-28.133 0l-7.994 7.994c-3.905 3.905-3.905 10.237 0 14.143 3.905 3.905 10.237 3.905 14.143 0l7.918-7.918 12.285 12.286c3.878 3.878 8.972 5.817 14.066 5.817s10.188-1.939 14.066-5.817l19.84-19.84c3.905-3.905 3.905-10.237 0-14.143z"/><path d="m507.4 209.782c4.407-6.875 5.723-15.343 3.609-23.231s-7.486-14.563-14.741-18.313c-3.146-1.626-5.072-4.962-4.907-8.499.379-8.158-2.715-16.148-8.489-21.923-5.774-5.774-13.762-8.873-21.923-8.489-3.554.172-6.873-1.762-8.499-4.907-3.75-7.254-10.425-12.627-18.313-14.741-7.891-2.115-16.356-.798-23.23 3.609-2.981 1.912-6.833 1.911-9.813 0-6.875-4.408-15.341-5.723-23.23-3.609-7.888 2.114-14.563 7.487-18.313 14.741-1.626 3.146-4.971 5.067-8.499 4.907-8.161-.381-16.148 2.715-21.922 8.489-5.775 5.775-8.869 13.765-8.49 21.922.165 3.538-1.762 6.874-4.907 8.5-7.254 3.75-12.627 10.424-14.741 18.313-1.009 3.763-1.228 7.658-.711 11.449h-174.5c-5.523 0-10 4.477-10 10s4.477 10 10 10h179.609c-.215.549-.464 1.088-.79 1.596-4.407 6.875-5.723 15.343-3.609 23.231.29 1.083.647 2.141 1.057 3.173h-176.27c-5.523 0-10 4.477-10 10s4.477 10 10 10h194.265c.435 1.143.653 2.376.594 3.639-.379 8.158 2.715 16.148 8.49 21.923 5.774 5.774 13.761 8.874 21.922 8.489 3.533-.173 6.873 1.761 8.499 4.907 1.201 2.324 2.706 4.451 4.451 6.344v93.393c0 4.04 2.431 7.683 6.161 9.234 3.729 1.551 8.027.705 10.892-2.145l24.947-24.817 24.947 24.817c1.912 1.902 4.461 2.911 7.055 2.911 1.292 0 2.596-.251 3.837-.767 3.73-1.551 6.161-5.194 6.161-9.234v-93.393c1.745-1.892 3.25-4.02 4.451-6.344 1.626-3.146 4.966-5.068 8.499-4.907 8.166.386 16.148-2.714 21.922-8.489 5.775-5.775 8.869-13.765 8.49-21.923-.165-3.537 1.762-6.873 4.907-8.499 7.254-3.75 12.627-10.424 14.741-18.313s.798-16.356-3.609-23.232c-1.912-2.979-1.912-6.831 0-9.812zm-79.401 170.86-14.948-14.87c-3.901-3.881-10.204-3.881-14.105 0l-14.947 14.87v-59.992c5.983.282 11.979-1.282 17.094-4.56 2.981-1.912 6.833-1.911 9.813 0 4.723 3.028 10.197 4.597 15.72 4.597.458 0 .915-.023 1.373-.045zm63.691-142.991c-.67 2.501-2.307 4.534-4.607 5.723-10.064 5.203-16.228 15.877-15.701 27.195.121 2.587-.822 5.02-2.653 6.852-1.831 1.831-4.264 2.771-6.851 2.653-11.324-.524-21.992 5.636-27.195 15.701-1.189 2.301-3.222 3.937-5.724 4.607-2.5.669-5.08.27-7.259-1.128-4.77-3.058-10.235-4.586-15.702-4.586-5.465 0-10.932 1.529-15.701 4.586-2.18 1.397-4.759 1.797-7.26 1.128-2.502-.67-4.534-2.307-5.724-4.607-5.203-10.064-15.869-16.23-27.195-15.701-2.581.119-5.02-.822-6.851-2.653-1.832-1.832-2.774-4.265-2.653-6.853.371-7.988-2.602-15.646-7.915-21.295-.156-.171-.315-.339-.483-.499-2.11-2.139-4.555-3.979-7.303-5.4-2.3-1.189-3.936-3.221-4.606-5.723s-.27-5.081 1.128-7.26c6.115-9.538 6.115-21.864 0-31.402-1.397-2.18-1.798-4.759-1.128-7.261.67-2.501 2.307-4.534 4.607-5.723 10.064-5.203 16.227-15.877 15.701-27.195-.121-2.587.822-5.02 2.653-6.852s4.269-2.772 6.851-2.653c11.325.525 21.993-5.636 27.195-15.701 1.189-2.301 3.222-3.937 5.724-4.607 2.501-.669 5.08-.27 7.259 1.128 9.539 6.116 21.866 6.116 31.402 0 2.18-1.397 4.758-1.799 7.26-1.128 2.502.67 4.534 2.307 5.724 4.607 5.203 10.064 15.876 16.229 27.195 15.701 2.588-.118 5.02.821 6.851 2.653 1.832 1.832 2.774 4.265 2.653 6.852-.526 11.317 5.636 21.992 15.702 27.195 2.3 1.189 3.936 3.221 4.606 5.723s.27 5.081-1.128 7.26c-6.115 9.538-6.115 21.864 0 31.402 1.398 2.18 1.799 4.759 1.128 7.261z"/><path d="m453.556 187.486c-3.905-3.905-10.237-3.905-14.142 0l-33.191 33.192-13.213-13.213c-3.905-3.905-10.237-3.905-14.143 0-3.905 3.905-3.905 10.237 0 14.143l20.284 20.284c1.953 1.953 4.512 2.929 7.071 2.929s5.119-.976 7.071-2.929l40.263-40.263c3.905-3.905 3.905-10.237 0-14.143z"/><path d="m122.074 120.93c-1.86-1.86-4.44-2.93-7.07-2.93s-5.21 1.07-7.07 2.93-2.93 4.44-2.93 7.07 1.07 5.21 2.93 7.07 4.44 2.93 7.07 2.93 5.21-1.07 7.07-2.93 2.93-4.44 2.93-7.07-1.07-5.21-2.93-7.07z"/><path d="m200.997 118h-48.667c-5.523 0-10 4.477-10 10s4.477 10 10 10h48.667c5.523 0 10-4.477 10-10s-4.477-10-10-10z"/><path d="m302.838 294h-114.322c-5.523 0-10 4.477-10 10s4.477 10 10 10h114.321c5.523 0 10-4.477 10-10s-4.476-10-9.999-10z"/></svg>