<svg enable-background="new 0 0 512 512" viewBox="0 0 512 512" xmlns="http://www.w3.org/2000/svg"><path d="m448 258.102c5.523 0 10-4.477 10-10v-158.102c0-27.57-22.43-50-50-50h-67.779c-4.992-6.384-12.757-10.5-21.471-10.5h-16.266c-7.959-17.694-25.742-29.5-45.607-29.5h-1.755c-19.865 0-37.647 11.806-45.606 29.5h-16.266c-8.714 0-16.479 4.116-21.471 10.5h-67.779c-27.57 0-50 22.43-50 50v372c0 27.57 22.43 50 50 50h304c27.57 0 50-22.43 50-50v-130.063c0-5.523-4.477-10-10-10s-10 4.477-10 10v130.063c0 16.542-13.458 30-30 30h-304c-16.542 0-30-13.458-30-30v-372c0-16.542 13.458-30 30-30h62v20h-52c-11.028 0-20 8.972-20 20v352c0 11.028 8.972 20 20 20h284c11.028 0 20-8.972 20-20v-352c0-11.028-8.972-20-20-20h-52v-20h62c16.542 0 30 13.458 30 30v158.102c0 5.523 4.477 10 10 10zm-262-201.352c0-3.998 3.252-7.25 7.25-7.25h23.275c4.514 0 8.468-3.024 9.651-7.38 3.535-13.024 15.438-22.12 28.947-22.12h1.755c13.508 0 25.412 9.096 28.947 22.12 1.183 4.356 5.137 7.38 9.651 7.38h23.275c3.998 0 7.25 3.252 7.25 7.25v23.25h-140.001zm212 43.25.013 352s-.004 0-.013 0h-284v-352h62 160z"/><path d="m455.07 283.83c-1.86-1.86-4.44-2.93-7.07-2.93s-5.21 1.07-7.07 2.93-2.93 4.44-2.93 7.07c0 2.64 1.07 5.21 2.93 7.07 1.86 1.87 4.44 2.93 7.07 2.93s5.21-1.06 7.07-2.93c1.86-1.86 2.93-4.43 2.93-7.07 0-2.63-1.07-5.2-2.93-7.07z"/><path d="m270.07 178.93c-1.86-1.86-4.44-2.93-7.07-2.93s-5.21 1.07-7.07 2.93-2.93 4.44-2.93 7.07 1.07 5.21 2.93 7.07 4.44 2.93 7.07 2.93 5.21-1.07 7.07-2.93 2.93-4.44 2.93-7.07-1.07-5.21-2.93-7.07z"/><path d="m366.484 176h-59.484c-5.523 0-10 4.477-10 10s4.477 10 10 10h59.484c5.523 0 10-4.477 10-10s-4.477-10-10-10z"/><path d="m366.484 284h-103.484c-5.523 0-10 4.477-10 10s4.477 10 10 10h103.484c5.523 0 10-4.477 10-10s-4.477-10-10-10z"/><path d="m366.484 392h-103.484c-5.523 0-10 4.477-10 10s4.477 10 10 10h103.484c5.523 0 10-4.477 10-10s-4.477-10-10-10z"/><path d="m200 176h-38v-38c0-5.523-4.477-10-10-10s-10 4.477-10 10v48c0 5.523 4.477 10 10 10h48c5.523 0 10-4.477 10-10s-4.477-10-10-10z"/><path d="m221.025 127.714c-3.904-3.905-10.236-3.905-14.141 0l-13.788 13.788-1.169-1.169c-3.905-3.905-10.237-3.905-14.143 0s-3.905 10.237 0 14.143l8.24 8.24c1.953 1.953 4.512 2.929 7.071 2.929s5.119-.976 7.071-2.929l20.859-20.859c3.905-3.905 3.905-10.237 0-14.143z"/><path d="m200 283.709h-38v-38c0-5.523-4.477-10-10-10s-10 4.477-10 10v48c0 5.523 4.477 10 10 10h48c5.523 0 10-4.477 10-10s-4.477-10-10-10z"/><path d="m221.025 235.423c-3.904-3.905-10.236-3.905-14.141 0l-13.788 13.788-1.169-1.169c-3.905-3.905-10.237-3.905-14.143 0s-3.905 10.237 0 14.143l8.24 8.24c1.953 1.953 4.512 2.929 7.071 2.929s5.119-.976 7.071-2.929l20.859-20.859c3.905-3.905 3.905-10.237 0-14.143z"/><path d="m200 392h-38v-38c0-5.523-4.477-10-10-10s-10 4.477-10 10v48c0 5.523 4.477 10 10 10h48c5.523 0 10-4.477 10-10s-4.477-10-10-10z"/><path d="m221.025 343.714c-3.904-3.905-10.236-3.905-14.141 0l-13.788 13.788-1.169-1.169c-3.905-3.905-10.237-3.905-14.143 0s-3.905 10.237 0 14.143l8.24 8.24c1.953 1.953 4.512 2.929 7.071 2.929s5.119-.976 7.071-2.929l20.859-20.859c3.905-3.905 3.905-10.237 0-14.143z"/></svg>