<?xml version="1.0" encoding="iso-8859-1"?>
<!-- Generator: Adobe Illustrator 19.0.0, SVG Export Plug-In . SVG Version: 6.00 Build 0)  -->
<svg version="1.1" id="Capa_1" xmlns="http://www.w3.org/2000/svg" xmlns:xlink="http://www.w3.org/1999/xlink" x="0px" y="0px"
	 viewBox="0 0 512 512" style="enable-background:new 0 0 512 512;" xml:space="preserve">
<g>
	<g>
		<path d="M448,258.102c5.523,0,10-4.477,10-10V90c0-27.57-22.43-50-50-50h-67.779c-4.992-6.384-12.757-10.5-21.471-10.5h-16.266
			C294.525,11.806,276.742,0,256.877,0h-1.755c-19.865,0-37.647,11.806-45.606,29.5H193.25c-8.714,0-16.479,4.116-21.471,10.5H104
			c-27.57,0-50,22.43-50,50v372c0,27.57,22.43,50,50,50h304c27.57,0,50-22.43,50-50V331.937c0-5.523-4.477-10-10-10s-10,4.477-10,10
			V462c0,16.542-13.458,30-30,30H104c-16.542,0-30-13.458-30-30V90c0-16.542,13.458-30,30-30h62v20h-52c-11.028,0-20,8.972-20,20
			v352c0,11.028,8.972,20,20,20h284c11.028,0,20-8.972,20-20V100c0-11.028-8.972-20-20-20h-52V60h62c16.542,0,30,13.458,30,30
			v158.102C438,253.625,442.477,258.102,448,258.102z M186,56.75c0-3.998,3.252-7.25,7.25-7.25h23.275
			c4.514,0,8.468-3.024,9.651-7.38C229.711,29.096,241.614,20,255.123,20h1.755c13.508,0,25.412,9.096,28.947,22.12
			c1.183,4.356,5.137,7.38,9.651,7.38h23.275c3.998,0,7.25,3.252,7.25,7.25V80H186V56.75z M398,100l0.013,352c0,0-0.004,0-0.013,0
			H114V100h62h160H398z"/>
	</g>
</g>
<g>
	<g>
		<path d="M455.07,283.83c-1.86-1.86-4.44-2.93-7.07-2.93s-5.21,1.07-7.07,2.93c-1.86,1.86-2.93,4.44-2.93,7.07
			c0,2.64,1.07,5.21,2.93,7.07c1.86,1.87,4.44,2.93,7.07,2.93s5.21-1.06,7.07-2.93c1.86-1.86,2.93-4.43,2.93-7.07
			C458,288.27,456.93,285.7,455.07,283.83z"/>
	</g>
</g>
<g>
	<g>
		<path d="M270.07,178.93c-1.86-1.86-4.44-2.93-7.07-2.93s-5.21,1.07-7.07,2.93c-1.86,1.86-2.93,4.44-2.93,7.07s1.07,5.21,2.93,7.07
			c1.86,1.86,4.44,2.93,7.07,2.93s5.21-1.07,7.07-2.93c1.86-1.86,2.93-4.44,2.93-7.07S271.93,180.79,270.07,178.93z"/>
	</g>
</g>
<g>
	<g>
		<path d="M366.484,176H307c-5.523,0-10,4.477-10,10s4.477,10,10,10h59.484c5.523,0,10-4.477,10-10S372.007,176,366.484,176z"/>
	</g>
</g>
<g>
	<g>
		<path d="M366.484,284H263c-5.523,0-10,4.477-10,10s4.477,10,10,10h103.484c5.523,0,10-4.477,10-10S372.007,284,366.484,284z"/>
	</g>
</g>
<g>
	<g>
		<path d="M366.484,392H263c-5.523,0-10,4.477-10,10s4.477,10,10,10h103.484c5.523,0,10-4.477,10-10S372.007,392,366.484,392z"/>
	</g>
</g>
<g>
	<g>
		<path d="M200,176h-38v-38c0-5.523-4.477-10-10-10s-10,4.477-10,10v48c0,5.523,4.477,10,10,10h48c5.523,0,10-4.477,10-10
			S205.523,176,200,176z"/>
	</g>
</g>
<g>
	<g>
		<path d="M221.025,127.714c-3.904-3.905-10.236-3.905-14.141,0l-13.788,13.788l-1.169-1.169c-3.905-3.905-10.237-3.905-14.143,0
			c-3.906,3.905-3.905,10.237,0,14.143l8.24,8.24c1.953,1.953,4.512,2.929,7.071,2.929c2.559,0,5.119-0.976,7.071-2.929
			l20.859-20.859C224.93,137.952,224.93,131.62,221.025,127.714z"/>
	</g>
</g>
<g>
	<g>
		<path d="M200,283.709h-38v-38c0-5.523-4.477-10-10-10s-10,4.477-10,10v48c0,5.523,4.477,10,10,10h48c5.523,0,10-4.477,10-10
			S205.523,283.709,200,283.709z"/>
	</g>
</g>
<g>
	<g>
		<path d="M221.025,235.423c-3.904-3.905-10.236-3.905-14.141,0l-13.788,13.788l-1.169-1.169c-3.905-3.905-10.237-3.905-14.143,0
			c-3.906,3.905-3.905,10.237,0,14.143l8.24,8.24c1.953,1.953,4.512,2.929,7.071,2.929c2.559,0,5.119-0.976,7.071-2.929
			l20.859-20.859C224.93,245.661,224.93,239.329,221.025,235.423z"/>
	</g>
</g>
<g>
	<g>
		<path d="M200,392h-38v-38c0-5.523-4.477-10-10-10s-10,4.477-10,10v48c0,5.523,4.477,10,10,10h48c5.523,0,10-4.477,10-10
			S205.523,392,200,392z"/>
	</g>
</g>
<g>
	<g>
		<path d="M221.025,343.714c-3.904-3.905-10.236-3.905-14.141,0l-13.788,13.788l-1.169-1.169c-3.905-3.905-10.237-3.905-14.143,0
			c-3.906,3.905-3.905,10.237,0,14.143l8.24,8.24c1.953,1.953,4.512,2.929,7.071,2.929c2.559,0,5.119-0.976,7.071-2.929
			l20.859-20.859C224.93,353.952,224.93,347.62,221.025,343.714z"/>
	</g>
</g>
<g>
</g>
<g>
</g>
<g>
</g>
<g>
</g>
<g>
</g>
<g>
</g>
<g>
</g>
<g>
</g>
<g>
</g>
<g>
</g>
<g>
</g>
<g>
</g>
<g>
</g>
<g>
</g>
<g>
</g>
</svg>
